<?xml version="1.0" encoding="UTF-8"?>
<svg id="Layer_1" xmlns="http://www.w3.org/2000/svg" version="1.1" viewBox="0 0 14.17 8.5">
  <!-- Generator: Adobe Illustrator 29.2.0, SVG Export Plug-In . SVG Version: 2.1.0 Build 108)  -->
  <defs>
    <style>
      .st0 {
        fill: #e31d4c;
      }

      .st1 {
        fill: #34ba9c;
      }
    </style>
  </defs>
  <polygon class="st0" points="5.9 6.41 5.9 8.39 0 8.39 0 .12 5.79 .12 5.79 2.1 2.27 2.1 2.27 3.26 9.14 3.26 9.14 5.1 2.27 5.1 2.27 6.41 5.9 6.41"/>
  <rect class="st0" x="9.02" y="4.31" width="0" height="0" transform="translate(-.9 5.58) rotate(-32.86)"/>
  <path class="st1" d="M11.64,4.65l2.44,3.74h-2.45l-1.12-1.98,1.12-1.76ZM10.51,2.22L11.73.12h2.45l-2.54,3.85-1.12-1.75Z"/>
  <polygon class="st0" points="8.45 .12 11.14 4.31 8.54 8.39 6.36 8.39 9.02 4.31 6.26 .12 8.45 .12"/>
</svg>